<?xml version="1.0" encoding="utf-8"?>
<!-- Generator: Adobe Illustrator 15.0.0, SVG Export Plug-In . SVG Version: 6.00 Build 0)  -->
<!DOCTYPE svg PUBLIC "-//W3C//DTD SVG 1.1 Tiny//EN" "http://www.w3.org/Graphics/SVG/1.1/DTD/svg11-tiny.dtd">
<svg version="1.1" baseProfile="tiny" id="Calque_1"
	 xmlns="http://www.w3.org/2000/svg" xmlns:xlink="http://www.w3.org/1999/xlink" x="0px" y="0px" width="32px" height="32px"
	 viewBox="0 0 32 32" overflow="inherit" xml:space="preserve">
<g>
	<path fill="#FFACB4" stroke="#FFACB4" stroke-miterlimit="10" d="M24.621,18.629l-0.001-0.002l-6.013,6.016
		c-0.001-0.003-0.002-0.005-0.002-0.006c-0.639,0.628-1.516,1.016-2.482,1.016c-0.949,0-1.81-0.374-2.445-0.981l-0.115-0.113
		c-0.024-0.025-0.048-0.051-0.071-0.076c-0.001,0-0.001,0.001-0.001,0.002l-7.066-7.066H6.424h0l-1.216,1.215l10.805,10.807h0h0
		l9.709-9.709l-1.101-1.103L24.621,18.629z"/>
	<path fill="#00ACB4" stroke="#00ACB4" stroke-miterlimit="10" d="M28.19,5.113c-2.985-2.987-7.619-3.32-10.975-1.002l1.244,1.243
		c2.658-1.661,6.202-1.335,8.513,0.976c3.235,3.234,1.702,7.412,1.074,8.099s-1.83,0.75-2.586,0.125v0.001l-0.013-0.011
		c-0.043-0.036-0.085-0.074-0.124-0.115c-0.041-0.041-0.079-0.082-0.115-0.125l-7.61-7.61l-0.003,0.005l-1.729-1.73
		C12.497,1.721,7.132,1.76,3.809,5.082c-3.361,3.362-3.361,8.812,0,12.174c0.057,0.058,0.115,0.113,0.173,0.168l1.218-1.218
		c-0.059-0.055-0.116-0.111-0.174-0.167c-2.689-2.689-2.689-7.049,0-9.739c2.689-2.689,7.049-2.689,9.738,0
		c0.144,0.143,0.279,0.291,0.407,0.443l0.984,0.983c0-0.001,0.001-0.002,0.001-0.003l9.22,9.219
		c0.009,0.012,0.018,0.021,0.025,0.032l0.135,0.134l0.302,0.303l1.102,1.102l0.854-0.854c0.136-0.12,0.269-0.242,0.396-0.372
		C31.553,13.924,31.553,8.474,28.19,5.113z"/>
</g>
</svg>
