<?xml version="1.0" encoding="utf-8"?>
<!-- Generator: Adobe Illustrator 15.0.0, SVG Export Plug-In . SVG Version: 6.00 Build 0)  -->
<!DOCTYPE svg PUBLIC "-//W3C//DTD SVG 1.1//EN" "http://www.w3.org/Graphics/SVG/1.1/DTD/svg11.dtd">
<svg version="1.1" id="Calque_1" xmlns="http://www.w3.org/2000/svg" xmlns:xlink="http://www.w3.org/1999/xlink" x="0px" y="0px"
	 width="841.89px" height="595.28px" viewBox="0 0 841.89 595.28" enable-background="new 0 0 841.89 595.28" xml:space="preserve">
<g>
	<path fill="#FFACB4" stroke="#FFACB4" stroke-miterlimit="10" d="M471.098,326.297l-0.001-0.004l-49.943,49.945
		c-0.008-0.016-0.013-0.031-0.019-0.049c-5.306,5.221-12.582,8.445-20.61,8.445c-7.88,0-15.026-3.109-20.305-8.156l-0.95-0.947
		c-0.199-0.211-0.402-0.414-0.595-0.629c-0.004,0.006-0.007,0.016-0.011,0.02l-58.688-58.689l-0.004,0.004l-0.003-0.004
		l-10.099,10.102l89.738,89.736l0.003-0.002l0.004,0.002l80.633-80.633l-9.146-9.145L471.098,326.297z"/>
	<path fill="#00ACB4" stroke="#00ACB4" stroke-miterlimit="10" d="M500.742,214.05c-24.796-24.799-63.279-27.567-91.136-8.313
		l10.32,10.323c22.075-13.793,51.515-11.093,70.706,8.097c26.855,26.857,14.132,61.553,8.913,67.263
		c-5.219,5.706-15.192,6.22-21.473,1.035c-0.003,0.003-0.006,0.006-0.006,0.008l-0.093-0.092c-0.358-0.301-0.708-0.618-1.047-0.951
		c-0.333-0.339-0.647-0.686-0.949-1.044l-63.193-63.194l-0.032,0.033l-14.364-14.363c-27.986-26.965-72.532-26.653-100.128,0.945
		c-27.919,27.919-27.919,73.183,0,101.1c0.473,0.475,0.954,0.938,1.438,1.396l10.117-10.117c-0.487-0.452-0.97-0.913-1.444-1.388
		c-22.336-22.335-22.336-58.545,0-80.88c22.334-22.334,58.546-22.334,80.878,0c1.19,1.189,2.312,2.419,3.376,3.685l8.167,8.169
		c0.007-0.011,0.012-0.022,0.019-0.034l76.569,76.571c0.066,0.087,0.143,0.173,0.21,0.261l1.11,1.11l2.516,2.514l9.143,9.146
		l7.093-7.094c1.12-0.988,2.221-2.014,3.291-3.084C528.66,287.23,528.662,241.966,500.742,214.05z"/>
</g>
</svg>
